<?xml version="1.0" encoding="utf-8"?>
<!-- Generator: Adobe Illustrator 20.0.0, SVG Export Plug-In . SVG Version: 6.00 Build 0)  -->
<svg version="1.1" id="Isolation_Mode" xmlns="http://www.w3.org/2000/svg" xmlns:xlink="http://www.w3.org/1999/xlink" x="0px"
	 y="0px" viewBox="0 0 156.2 149.3" style="enable-background:new 0 0 156.2 149.3;" xml:space="preserve">
<style type="text/css">
	.st0{fill:#F2F2F2;}
</style>
<g>
	<path class="st0" d="M37,12.9c-0.2-0.8-0.4-1.6-0.7-2.3c-0.3-0.8-0.7-1.6-1.2-2.3c-0.5-0.8-1-1.6-1.6-2.3c-0.7-0.8-1.5-1.6-2.4-2.3
		C28,1.4,23.9,0,18.9,0C14,0,9.8,1.4,6.6,3.8C5.7,4.5,4.9,5.2,4.2,6.1C3.5,6.8,3,7.5,2.5,8.3C2,9.1,1.6,9.8,1.3,10.6
		c-0.3,0.7-0.5,1.5-0.7,2.3c-0.2,0.7-0.3,1.5-0.4,2.3C0.1,15.9,0,16.7,0,17.4c0,0,0,0.1,0,0.1c0,0.8,0.1,1.5,0.2,2.3
		c0.1,0.8,0.2,1.5,0.4,2.3c0.2,0.8,0.5,1.6,0.8,2.3c0.3,0.8,0.7,1.6,1.2,2.3c0.5,0.8,1.1,1.6,1.7,2.3c0.8,0.8,1.6,1.6,2.5,2.3
		c1.3,0.9,2.7,1.7,4.2,2.3c2.2,0.8,4.7,1.3,7.4,1.3h0.2h0c2.8,0,5.4-0.5,7.7-1.3c1.6-0.6,3-1.4,4.3-2.3c0.9-0.7,1.8-1.4,2.6-2.3
		c0.6-0.7,1.2-1.5,1.7-2.3c0.5-0.7,0.9-1.5,1.2-2.3c0.3-0.7,0.6-1.5,0.8-2.3c0.2-0.7,0.3-1.5,0.4-2.3c0.1-0.7,0.2-1.5,0.2-2.3
		c0,0,0-0.1,0-0.1c0-0.7-0.1-1.5-0.2-2.2C37.4,14.4,37.2,13.7,37,12.9z"/>
	<polygon class="st0" points="2,49.5 2,51.8 2,54.1 2,56.4 2,58.7 2,61 2,63.2 2,65.5 2,67.8 2,70.1 2,72.4 2,74.7 2,77 2,79.3 
		2,81.5 2,83.8 2,86.1 2,88.4 2,90.7 2,149.3 35.5,149.3 35.5,90.7 35.5,88.4 35.5,86.1 35.5,83.8 35.5,81.5 35.5,79.3 35.5,77 
		35.5,74.7 35.5,72.4 35.5,70.1 35.5,67.8 35.5,65.5 35.5,63.2 35.5,61 35.5,58.7 35.5,56.4 35.5,54.1 35.5,51.8 35.5,49.5 
		35.5,48.6 2,48.6 	"/>
	<path class="st0" d="M156.2,90.7c0-0.8,0-1.5,0-2.3c0-0.8-0.1-1.5-0.1-2.3c-0.1-0.8-0.1-1.5-0.2-2.3c-0.1-0.8-0.2-1.5-0.3-2.3
		c-0.1-0.8-0.2-1.5-0.4-2.3c-0.1-0.8-0.3-1.5-0.4-2.3c-0.2-0.8-0.3-1.5-0.5-2.3c-0.2-0.8-0.4-1.5-0.6-2.3c-0.2-0.8-0.5-1.5-0.8-2.3
		c-0.3-0.8-0.6-1.5-0.9-2.3c-0.3-0.8-0.7-1.5-1.1-2.3c-0.4-0.8-0.8-1.5-1.3-2.3c-0.5-0.8-1-1.6-1.5-2.3c-0.6-0.8-1.1-1.6-1.7-2.3
		c-0.7-0.8-1.4-1.6-2.1-2.3c-0.8-0.8-1.6-1.6-2.5-2.3c-1-0.8-2.1-1.6-3.2-2.3c-1.4-0.9-2.8-1.6-4.3-2.3c-2.2-1-4.5-1.7-7-2.3
		c-3.1-0.7-6.4-1-9.7-1c-3.5,0-6.6,0.4-9.4,1c-2.4,0.6-4.6,1.4-6.5,2.3c-1.4,0.7-2.8,1.5-4,2.3c-1.1,0.7-2.1,1.5-3,2.3
		c-0.9,0.7-1.6,1.5-2.4,2.3c-0.7,0.8-1.4,1.5-2,2.3c-0.6,0.8-1.2,1.5-1.7,2.3c-0.4,0.6-0.9,1.3-1.3,1.9V61v-2.3v-2.3v-2.3v-2.3v-2.3
		v-1H54c0,0.3,0,0.6,0,1c0,0.6,0,1.4,0,2.3c0,0.7,0,1.4,0,2.3c0,0.7,0,1.5,0,2.3c0,0.7,0,1.5,0,2.3c0,0.7,0,1.5,0,2.3
		c0,0.7,0,1.5,0,2.3c0,0.7,0,1.5,0,2.3c0,0.7,0,1.5,0,2.3c0,0.8,0,1.5,0,2.3c0,0.7,0,1.5,0,2.3c0,0.8,0,1.5,0,2.3c0,0.8,0,1.5,0,2.3
		c0,0.8,0,1.5,0,2.3c0,0.8,0,1.5,0,2.3c0,0.8,0,1.5,0,2.3c0,0.8,0,1.5,0,2.3c0,0.8,0,1.5,0,2.3c0,0.8,0,1.5,0,2.3
		c0,27.7-0.2,58.6-0.2,58.6h33.5V93c0-0.8,0-1.6,0.1-2.3c0-0.8,0.1-1.6,0.2-2.3c0.1-0.8,0.2-1.6,0.4-2.3c0.1-0.4,0.2-0.9,0.4-1.2
		c0.1-0.3,0.3-0.7,0.5-1c0.4-0.8,0.8-1.5,1.2-2.3c0.5-0.8,1-1.6,1.6-2.3c0.7-0.8,1.4-1.6,2.2-2.3c1-0.9,2.1-1.6,3.3-2.3
		c2.4-1.3,5.2-2.1,8.4-2.1c3.4,0,6.2,0.7,8.4,2.1c1.1,0.6,2.1,1.4,2.9,2.3c0.7,0.7,1.3,1.5,1.8,2.3c0.5,0.7,0.9,1.5,1.2,2.3
		c0.3,0.7,0.6,1.5,0.9,2.3c0.2,0.7,0.5,1.5,0.6,2.3c0.2,0.7,0.3,1.5,0.4,2.3c0.1,0.7,0.2,1.5,0.3,2.3c0.1,1.5,0.2,3.1,0.2,4.7v53.9
		h33.5V91.5C156.2,91.2,156.2,91,156.2,90.7z"/>
</g>
</svg>
